<?xml version="1.0" standalone="no"?>
<!DOCTYPE svg PUBLIC "-//W3C//DTD SVG 20010904//EN"
 "http://www.w3.org/TR/2001/REC-SVG-20010904/DTD/svg10.dtd">
<svg version="1.0" xmlns="http://www.w3.org/2000/svg"
 width="2000.000000pt" height="2000.000000pt" viewBox="0 0 2001.000000 2002.000000"
 preserveAspectRatio="xMidYMid meet">
<metadata>
Created by potrace 1.16, written by Peter Selinger 2001-2019
</metadata>
<style type="text/css">
	<!-- .st0{fill:#633f83;} -->
    .st0{fill:#fff;}
</style>
<g transform="translate(0.000000,2002.000000) scale(0.100000,-0.100000)"
fill="#000000" stroke="none">
<path class="st0" d="M9650 19870 c-1639 -58 -2943 -268 -4150 -669 -382 -127 -1356 -494
-1594 -600 -204 -92 -1962 -948 -2078 -1012 -51 -29 -172 -99 -268 -157 -233
-141 -438 -244 -528 -266 l-72 -18 0 -212 c0 -259 17 -844 30 -1061 6 -88 15
-254 20 -370 30 -630 27 -595 99 -1245 17 -151 44 -401 61 -555 79 -728 258
-1679 465 -2482 69 -264 249 -909 309 -1103 69 -223 169 -504 396 -1110 114
-305 225 -602 245 -660 109 -305 470 -1079 662 -1420 678 -1201 899 -1548
1446 -2265 352 -461 588 -744 927 -1115 410 -448 1222 -1268 1495 -1511 495
-440 1129 -954 1555 -1261 365 -263 869 -603 1006 -679 l76 -42 57 41 c58 43
194 128 721 454 586 362 1007 658 1531 1076 276 220 680 564 819 697 47 45
146 136 220 202 134 121 643 631 836 839 279 301 465 515 584 674 35 47 183
235 328 418 417 527 528 679 809 1112 316 485 419 666 736 1285 397 777 548
1099 779 1660 680 1656 1185 3630 1392 5440 53 458 67 598 86 870 11 154 25
318 30 365 31 282 55 830 65 1466 l7 411 -64 40 c-35 23 -118 69 -184 104 -65
34 -207 113 -314 174 -870 498 -1878 1006 -2557 1288 -518 216 -1448 541
-2009 702 -864 249 -1744 410 -2624 481 -231 18 -998 26 -1350 14z m1420 -64
c1030 -83 2001 -276 3012 -600 826 -265 1540 -536 2069 -786 107 -51 284 -134
394 -185 330 -153 1480 -763 1715 -910 20 -12 121 -68 225 -125 105 -56 196
-107 204 -113 11 -10 12 -85 7 -452 -10 -675 -34 -1227 -66 -1515 -5 -47 -19
-211 -30 -365 -11 -154 -29 -363 -40 -465 -11 -102 -27 -248 -36 -325 -188
-1754 -699 -3784 -1368 -5429 -224 -551 -384 -896 -744 -1601 -341 -669 -422
-814 -680 -1220 -262 -412 -428 -644 -853 -1192 -561 -724 -509 -661 -913
-1103 -560 -612 -1316 -1312 -1996 -1847 -561 -441 -852 -640 -1660 -1138
-212 -131 -413 -257 -447 -281 -54 -39 -68 -44 -116 -44 -67 0 -7 -38 -782
500 -810 562 -823 572 -1515 1163 -400 342 -486 421 -848 781 -222 221 -506
509 -631 641 -232 244 -530 569 -566 616 -11 15 -71 83 -132 153 -249 282
-460 560 -885 1161 -372 528 -414 589 -530 781 -162 265 -612 1059 -714 1259
-155 301 -366 760 -466 1009 -74 186 -661 1810 -705 1951 -94 302 -296 1046
-378 1395 -192 812 -317 1541 -400 2335 -20 187 -47 432 -60 545 -34 288 -53
523 -65 830 -5 146 -15 330 -20 410 -18 260 -29 587 -36 1041 l-7 445 60 22
c90 33 245 116 488 261 264 158 303 178 1275 651 1109 540 1165 565 1655 745
116 42 318 118 450 167 284 107 616 220 845 288 1125 334 2343 512 3830 560
398 12 1227 4 1460 -14z"/>
<path class="st0" d="M9511 17863 c29 -55 30 -63 27 -156 -2 -64 0 -91 6 -77 8 17 18 20
66 20 69 0 127 -27 480 -224 536 -300 860 -433 1305 -535 72 -17 272 -60 445
-96 680 -142 1031 -251 1405 -436 564 -279 1035 -709 1362 -1247 39 -64 83
-126 98 -137 22 -17 45 -21 141 -23 l114 -4 0 -52 0 -51 -75 -28 c-97 -36
-188 -98 -225 -153 -17 -24 -49 -96 -71 -161 -57 -167 -84 -212 -197 -326
-116 -119 -377 -278 -599 -366 -136 -54 -292 -98 -563 -161 -470 -107 -621
-149 -830 -231 -355 -138 -630 -321 -940 -624 -105 -103 -166 -156 -190 -163
-19 -6 -98 -21 -175 -32 -473 -72 -915 -199 -1220 -353 -106 -53 -255 -150
-255 -165 0 -4 24 -16 53 -26 28 -10 89 -43 135 -74 l82 -56 0 -53 0 -53 -52
0 c-29 0 -87 9 -128 20 -41 11 -138 29 -215 40 -596 89 -1138 -121 -1626 -626
-213 -221 -339 -425 -396 -642 -69 -260 -12 -542 213 -1064 53 -122 64 -157
64 -203 l0 -55 -49 0 c-118 0 -312 169 -395 343 -18 39 -61 159 -95 265 -146
456 -297 712 -468 792 -70 33 -123 24 -388 -65 -176 -60 -247 -79 -302 -83
l-73 -5 0 55 0 55 82 54 82 54 -44 6 c-49 7 -116 -4 -174 -27 -73 -28 -140
-82 -287 -228 -201 -199 -238 -222 -529 -321 -341 -117 -685 -341 -989 -645
-249 -248 -445 -539 -459 -680 -14 -152 117 -387 260 -465 49 -27 63 -30 180
-33 209 -7 762 39 946 79 198 43 422 129 726 281 338 168 413 237 497 456 l24
62 50 -1 50 0 48 -97 c110 -226 297 -410 589 -583 194 -116 364 -191 933 -414
585 -230 882 -411 1062 -650 85 -111 173 -334 173 -438 0 -15 6 -30 14 -33 7
-3 103 2 212 10 110 9 285 21 389 28 256 17 1232 17 1475 0 446 -31 933 -85
1400 -157 123 -19 226 -32 228 -30 7 6 -220 195 -360 300 -415 311 -762 478
-1307 630 -194 54 -310 91 -363 115 -26 12 -28 18 -28 71 l0 57 53 14 c73 18
348 15 451 -6 44 -8 82 -13 85 -10 9 8 -55 123 -140 253 -93 144 -256 360
-450 598 -148 181 -149 182 -149 233 l0 50 59 0 c52 0 66 -5 119 -40 33 -23
74 -56 91 -76 17 -19 31 -29 31 -23 0 32 -56 278 -87 379 -197 653 -533 1037
-925 1058 l-98 5 0 53 0 53 368 185 c417 210 626 324 792 433 166 109 229 162
298 251 137 177 171 194 631 312 404 104 459 123 649 230 296 165 580 395 883
714 57 60 248 238 424 394 176 157 375 339 442 404 67 65 138 125 157 133 37
16 134 27 381 45 438 33 730 148 870 345 140 195 137 443 -8 655 -42 61 -177
200 -194 200 -7 0 -116 -29 -241 -65 -136 -39 -246 -65 -274 -65 l-48 0 0 59
c0 56 2 61 45 105 90 93 204 153 580 306 132 54 268 112 302 129 83 41 162 44
187 6 9 -13 16 -37 16 -53 0 -32 28 -122 38 -121 8 0 455 510 450 513 -3 2
-680 -21 -686 -23 -2 0 8 -15 22 -32 22 -26 26 -40 26 -99 0 -65 -1 -68 -26
-74 -15 -4 -98 -40 -184 -81 -86 -41 -209 -95 -273 -120 -123 -50 -180 -90
-231 -164 -27 -39 -31 -41 -81 -41 l-53 0 -42 71 c-82 139 -195 275 -384 465
-105 105 -243 234 -306 286 -361 299 -791 580 -1185 773 -533 261 -945 359
-1660 395 -606 30 -882 97 -1310 319 -284 147 -517 300 -702 461 l-92 80 30
-57z"/>
<path class="st0" d="M15548 13626 c-98 -40 -180 -75 -183 -77 -2 -3 20 -70 49 -150 125
-331 205 -662 236 -978 16 -159 13 -584 -5 -741 -32 -273 -105 -573 -209 -852
-97 -261 -202 -487 -440 -948 -396 -765 -466 -976 -606 -1820 -28 -168 -53
-313 -56 -322 -4 -15 -17 -18 -66 -18 l-62 0 55 -27 c65 -34 83 -59 145 -208
26 -63 49 -113 51 -111 2 2 8 180 13 396 5 216 14 441 20 499 33 330 156 704
330 1008 68 118 207 326 432 644 251 357 399 605 513 863 279 626 342 1274
200 2053 -49 266 -206 852 -230 859 -6 2 -90 -30 -187 -70z"/>
<path class="st0" d="M7140 12951 c-251 -56 -473 -183 -681 -391 -287 -287 -421 -626 -355
-895 23 -90 94 -235 148 -302 28 -35 207 -180 513 -417 258 -201 471 -363 472
-362 2 2 23 73 47 159 109 382 262 676 440 845 89 84 171 139 306 204 252 120
287 138 314 161 23 19 28 29 23 49 -10 38 -55 88 -80 88 -31 0 -96 74 -170
196 -93 153 -149 219 -247 292 -122 91 -235 195 -253 234 -12 25 -36 45 -89
75 -134 76 -248 95 -388 64z"/>
<path class="st0" d="M9750 6793 c-338 -5 -749 -34 -985 -68 -121 -18 -307 -56 -301 -62 2
-2 66 -13 142 -23 446 -63 754 -165 1033 -343 152 -96 241 -129 346 -129 33 0
168 19 300 41 514 86 639 96 1260 96 420 0 540 -3 680 -18 384 -40 643 -90
1211 -231 381 -95 615 -148 622 -141 2 2 -81 45 -185 97 -460 230 -1132 452
-1824 604 -374 81 -725 127 -1189 154 -176 10 -918 32 -950 28 -8 -2 -80 -3
-160 -5z"/>
</g>
</svg>
