<?xml version="1.0" encoding="UTF-8"?>
<!DOCTYPE svg PUBLIC "-//W3C//DTD SVG 1.1//EN" "http://www.w3.org/Graphics/SVG/1.1/DTD/svg11.dtd">
<!-- Creator: CorelDRAW -->
<svg xmlns="http://www.w3.org/2000/svg" xml:space="preserve" width="960px" height="960px" version="1.1" style="shape-rendering:geometricPrecision; text-rendering:geometricPrecision; image-rendering:optimizeQuality; fill-rule:evenodd; clip-rule:evenodd"
viewBox="0 0 960 960"
 xmlns:xlink="http://www.w3.org/1999/xlink">
 <defs>
  <!-- <style type="text/css">
   <![CDATA[
    .str0 {stroke:#633F83;stroke-width:12;stroke-miterlimit:2.61313}
    .fil1 {fill:#633F83}
    .fil0 {fill:#633F83}
   ]]>
  </style> -->
  <style type="text/css">
   <![CDATA[
    .str0 {stroke:#633F83;stroke-width:12;stroke-miterlimit:2.61313}
    .fil1 {fill:#633F83}
    .fil0 {fill:#633F83}
   ]]>
  </style>
 </defs>
 <g id="Layer_x0020_1">
  <metadata id="CorelCorpID_0Corel-Layer"/>
  <g id="_105553338108928">
   <g>
    <path class="fil0" d="M399.523 299.726l67.812 -154.685c8.906,1.975 33.762,20.788 64.961,31.297 45.571,15.351 113.392,11.122 164.542,77.608 17.202,22.363 6.58,20.858 27.926,20.901l-3.449 1.109c-28.851,9.626 -1.292,22.779 -47.175,45.831 -34.64,17.406 -77.317,8.762 -120.525,52.88 -7.586,7.748 -4.59,6.933 -18.424,8.918 -23.204,3.331 -62.157,14.083 -72.204,27.895 4.143,2.192 4.374,1.514 8.736,3.53l9.461 6.433c-45.352,-13 -75.497,2.051 -99.017,26.268 -31.368,32.292 -22.248,56.948 -5.195,95.048 -22.726,-11.061 -18.191,-26.204 -29.841,-49.584 -15.923,-31.958 -25.896,-16.188 -53.495,-10.379l8.244 -5.538c4.1,-2.366 1.017,1.45 6.607,-4.035 -29.186,-9.063 -30.503,16.535 -51.193,23.393 -7.664,2.542 -13.265,4.327 -19.45,7.326 -20.664,10.019 -46.522,32.713 -56.41,53.703 -5.417,11.492 2.077,28.155 12.136,32.667 6.575,2.953 39.296,-0.52 49.338,-1.557 14.028,-1.453 27.782,-7.476 39.834,-13.257 25.502,-12.234 23.197,-15.484 28.25,-26.883 22.674,58.401 130.04,45.516 135.301,107.597 73.581,-6.95 120.825,-3.099 189.934,8.594 -55.723,-53.151 -89.423,-47.789 -107.074,-57.929 7.883,-4.134 22.98,-1.002 31.664,1.762 -3.487,-16.293 -29.899,-45.71 -38.886,-57.453 8.646,3.478 9.469,7.387 16.021,13.04 0.436,-17.668 -15.01,-82.95 -55.171,-79.136 4.787,-3.851 40.028,-18.521 61.934,-33.889 10.368,-7.274 8.62,-10.241 15.88,-15.868 7.421,-5.752 34.634,-8.745 48.252,-15.386 22.77,-11.099 38.011,-25.916 54.261,-43.321l33.64 -29.989c10.033,-9.363 6.872,-10.186 23.269,-10.923 30.694,-1.375 58.109,-10.472 51.052,-43.58 -1.69,-7.921 -9.291,-15.103 -14.306,-20.052l-27.27 7.792c6.217,-12.053 33.484,-17.957 49.008,-26.526 3.675,5.634 0.373,1.526 2.106,6.731l2.644 6.942 29.102 -33.155 -45.545 1.45c1.464,2.167 2.493,2.938 3.336,4.024 2.58,3.314 1.797,1.058 3.345,5.183 -7.002,2.38 -12.523,5.682 -18.901,8.386 -9.796,4.154 -10.374,3.186 -15.585,9.32l-2.127 3.122c-15.307,-31.228 -79.274,-78.787 -127.064,-90.423 -53.178,-12.947 -69.176,5.495 -128.363,-33.111 -13.921,-9.083 -19.574,-16.909 -30.075,-25.535 12.841,34.325 20.823,1.604 -14.779,90.137 -6.087,15.135 -12.312,29.859 -18.448,45.02 -6.081,15.033 -14.964,33.12 -18.624,48.287z"/>
    <path class="fil0" d="M355.517 487.71c3.732,-17.249 9.972,-34.293 18.552,-45.6 13.075,-17.232 29.648,-17.102 37.89,-25.746 -5.942,-16.238 -3.403,-0.34 -13.797,-18.138 -9.126,-15.623 -12.121,-12.191 -21.64,-22.236 -7.208,-7.603 3.379,-0.268 -6.058,-6.254 -32.098,-20.355 -99.405,37.826 -64.632,79.307l49.685 38.667z"/>
    <path class="fil0" d="M740.005 338.389c42.928,98.356 -9.539,154.689 -30.593,206.419 -11.084,27.238 -11.382,42.766 -17.087,73.353l-72.894 -24.48c4.631,6.586 39.889,19.563 47.423,22.232 32.832,11.633 20.918,1.522 35.333,31.304 3.47,-39.263 -3.088,-53.675 12.642,-89.43 22.614,-51.41 95.245,-90.374 49.038,-229.038l-23.862 9.64z"/>
    <path class="fil0" d="M400.3 672.193c24.717,1.589 49.419,6.465 67.107,18.405 19.352,13.066 25.219,1.82 74.101,-0.552 75.569,-3.666 102.464,14.057 152.212,21.409 -23.157,-19.728 -91.65,-39.866 -132.88,-45.461 -33.397,-4.536 -135.723,-7.82 -160.54,6.199z"/>
   </g>
  </g>
  <path class="fil1 str0" d="M470.025 941.122c-2.683,0 -8.663,-4.943 -11.071,-6.612 -2.023,-1.401 -3.31,-2.412 -5.359,-3.768l-31.653 -21.964c-1.931,-1.417 -3.475,-2.321 -5.378,-3.749 -3.635,-2.73 -6.998,-4.811 -10.673,-7.58 -9.835,-7.409 -27.284,-21.345 -37.261,-30.619l-9.441 -8.24c-1.147,-0.97 -1.364,-0.935 -2.538,-2.026 -3.365,-3.128 -6.418,-5.263 -9.699,-8.554 -1.562,-1.567 -2.713,-2.718 -4.274,-4.282 -0.932,-0.934 -1.365,-1.292 -2.355,-2.209l-3.448 -3.397c-0.889,-0.802 -0.353,-0.315 -1.237,-1.044 -5.751,-4.74 -15.675,-15.161 -20.84,-20.799 -0.079,-0.087 -0.195,-0.209 -0.276,-0.296l-21.469 -22.451c-17.416,-18.936 -33.87,-38.427 -49.333,-59.043l-36.561 -52.991c-10.6,-17.605 -23.866,-39.759 -32.896,-57.798l-5.877 -11.804c-6.337,-12.153 -11.542,-24.668 -16.673,-37.514 -8.7,-21.773 -15.288,-44.32 -23.952,-66.169 -3.458,-8.718 -6.227,-18.095 -9.058,-26.877 -3.742,-11.608 -10.601,-37.522 -13.423,-49.889 -7.476,-32.77 -14.126,-65.828 -17.919,-99.58 -0.611,-5.436 -1.549,-11.266 -1.803,-16.448 -0.814,-16.563 -4.665,-32.289 -4.578,-49.037 0.09,-17.429 -2.318,-34.151 -2.278,-51.908 0.015,-6.21 -0.571,-11.017 -0.571,-17.681 0,-6.084 0,-12.167 0,-18.251 5.7,-0.474 36.089,-19.451 43.163,-23.005 2.029,-1.019 3.46,-1.526 5.48,-2.507l39.448 -19.305c1.664,-0.749 1.462,-0.75 2.652,-1.341 1.005,-0.498 1.763,-0.727 2.768,-1.225 1.19,-0.59 0.988,-0.591 2.652,-1.341 12.293,-5.537 24.328,-12.015 36.735,-17.455 15.385,-6.746 32.289,-12.077 48.335,-18.403 12.063,-4.755 24.927,-8.436 37.319,-12.308 21.995,-6.873 45.005,-11.259 68.137,-15.146 12.548,-2.109 30.824,-4.812 44.157,-5.47 9.963,-0.493 20.527,-2.244 30.834,-2.252l48.468 -1.73c14.679,0 29.823,0.571 43.956,1.679 16.208,1.27 31.525,3.413 47.552,6.069 23.478,3.891 45.918,9.416 68.545,15.878l23.414 7.389c4.044,1.348 7.672,2.421 11.536,3.865 7.407,2.768 15.21,5.137 22.824,7.98 14.689,5.484 29.396,11.308 43.426,17.608l31.454 14.749c9.472,4.361 18.407,9.911 27.817,14.395 8.958,4.269 34.537,18.601 42.31,23.288l9.848 5.553c2.788,1.392 7.568,4.645 10.085,5.316l-0.567 26.241c0.02,3.816 -0.5,5.429 -0.593,8.533 -0.18,6.022 0.218,12.267 0.038,18.289 -0.094,3.12 -0.588,4.71 -0.574,8.553 0.025,6.479 -1.095,18.019 -1.823,24.984 -2.313,22.143 -3.326,43.712 -6.572,65.865 -1.573,10.733 -2.685,21.169 -4.79,31.714 -0.519,2.595 -0.791,4.845 -1.251,7.876 -3.46,22.818 -9.269,46.225 -14.559,67.575 -3.545,14.307 -7.127,28.589 -11.589,42.597 -1.447,4.541 -2.837,9.021 -4.291,13.962l-13.897 40.289c-0.404,1.098 -0.707,2.321 -1.154,3.41 -0.508,1.238 -0.774,1.548 -1.35,3.212 -3.761,10.879 -8.267,21.676 -12.881,32.181l-32.645 67.743c-0.916,1.896 -2.014,3.794 -3.118,6.008 -8.897,17.817 -19.061,34.458 -30.079,50.917 -7.284,10.884 -14.684,21.628 -23.031,31.728l-7.713 9.97c-1.424,1.909 -2.471,3.356 -3.959,5.167 -6.726,8.185 -17.221,23.527 -24.247,30.511l-17.594 18.911c-7.867,10.128 -17.618,18.532 -26.623,27.566l-9.64 8.613c-1.812,1.445 -2.768,2.9 -4.72,4.407 -2.104,1.624 -2.942,2.564 -4.75,4.376l-9.696 8.556c-12.153,11.297 -26.547,22.604 -39.825,32.617l-82.068 54.261c-1.118,0.679 -4.288,3.667 -5.46,3.667zm-398.739 -767.713c0,9.741 -1.045,27.585 0.156,36.347 0.563,4.105 0.755,27.736 1.712,34.792 1.404,10.365 0.286,23.878 1.712,34.792 1.432,10.952 1.976,22.259 3.583,33.491l1.716 16.536c0.802,5.635 1.52,10.858 1.975,16.277 1.673,19.933 12.561,71.412 17.897,92.756 2.44,9.761 5.556,19.1 7.709,28.796 4.438,19.978 15.728,51.213 22.624,69.208l20.372 53.208 11.625 25.45c9.424,18.845 18.908,35.357 29.107,53.601 5.384,9.631 11.571,18.91 17.4,28.23 2.425,3.878 4.422,7.485 7.144,11.109 6.545,8.713 12.347,18.027 18.978,26.654 1.42,1.847 2.678,3.454 4.241,5.456l54.954 64.26c1.842,1.82 2.52,3.103 4.263,4.864l22.905 23.298c10.767,10.627 21.502,21.724 33.035,31.42l77.179 60.86c1.905,1.318 3.707,2.642 5.401,3.725l16.395 10.984c4.206,2.821 13.317,10.094 18.375,8.5 2.851,-0.899 5.631,-3.795 8.307,-5.432l14.044 -8.772c7.559,-4.886 15.132,-8.879 22.592,-13.915 9.093,-6.14 18.556,-11.723 27.339,-18.294l10.558 -7.695c1.877,-1.564 3.699,-2.719 5.571,-4.125 13.932,-10.468 27.009,-22.063 40.585,-32.999 1.001,-0.806 1.363,-1.344 2.369,-2.194 1.149,-0.972 1.374,-0.926 2.543,-2.019l4.856 -4.272c1.628,-1.566 2.87,-3.121 4.578,-4.548l26.147 -24.619c0.462,-0.46 0.712,-0.741 1.126,-1.155l6.565 -6.554c0.084,-0.083 0.203,-0.202 0.286,-0.285l7.671 -8.3c2.493,-3.225 15.845,-16.554 19.885,-21.755l6.286 -7.404c2.727,-3.638 5.031,-6.956 7.866,-10.387l16.417 -20.658c7.797,-10.205 16.056,-20.67 23.268,-31.491l7.499 -11.324c9.625,-15.01 18.941,-29.799 27.222,-46.359l10.786 -21.156c0.693,-1.252 0.931,-1.69 1.575,-2.988l28.972 -62.861c7.974,-22.132 18.224,-45.152 24.458,-67.945 1.287,-4.705 2.813,-9.015 4.234,-14.018l18.911 -72.92c4.068,-20.789 8.436,-41.183 11.243,-62.336 2.077,-15.647 5.02,-33.225 6.093,-49.233 1.018,-15.173 4.689,-47.722 4.581,-59.871 -0.033,-3.832 0.499,-5.417 0.592,-8.535 0.177,-5.923 -0.651,-12.264 0.222,-18.029 0.841,-5.558 0.34,-12.079 0.316,-17.936 -0.016,-3.781 0.598,-4.917 0.604,-8.523 0.004,-3.236 -0.02,-6.477 -0.02,-9.715 -6.507,-4.357 -47.228,-27.105 -55.524,-31.179l-10.46 -5.512c-2.001,-1.078 -2.954,-1.78 -5.129,-2.857 -1.97,-0.975 -3.526,-1.759 -5.331,-2.655 -1.95,-0.967 -3.283,-1.906 -5.122,-2.863 -15.518,-8.078 -31.794,-15.724 -47.94,-22.792 -18.977,-8.306 -43.619,-18.13 -63.099,-24.176 -16.044,-4.979 -31.842,-11.218 -48.268,-15.049 -12.879,-3.004 -25.512,-6.368 -38.4,-8.945 -15.882,-3.176 -31.611,-5.775 -48.055,-7.847 -1.974,-0.249 -4.833,-0.361 -7.283,-0.704 -11.087,-1.548 -19.346,-1.707 -29.92,-2.024l-15.383 -0.589c-22.584,0 -45.348,0.581 -66.202,2.251 -11.151,0.893 -20.975,1.109 -31.752,2.475l-45.553 6.356c-5.292,0.872 -9.315,1.84 -14.429,2.683 -9.134,1.506 -18.934,4.088 -27.916,6.311 -17.475,4.325 -36.041,9.785 -52.587,16.434l-25.035 9.19c-16.591,5.506 -32.358,12.8 -47.979,20.471 -1.078,0.529 -1.541,0.679 -2.784,1.209 -7.009,2.99 -13.75,7.146 -20.622,10.181 -7.974,3.52 -15.053,7.75 -23.138,11.087 -7.628,3.147 -32.222,15.688 -39.493,20.4 -7.337,4.754 -20.324,13.413 -29.201,14.152z"/>
 </g>
</svg>
