<?xml version="1.0" standalone="no"?>
<!DOCTYPE svg PUBLIC "-//W3C//DTD SVG 20010904//EN"
 "http://www.w3.org/TR/2001/REC-SVG-20010904/DTD/svg10.dtd">
<svg version="1.0" xmlns="http://www.w3.org/2000/svg"
 width="658.000000pt" height="658.000000pt" viewBox="0 0 658.000000 658.000000"
 preserveAspectRatio="xMidYMid meet">
<metadata>
Created by potrace 1.14, written by Peter Selinger 2001-2017
</metadata>
<g transform="translate(0.000000,658.000000) scale(0.100000,-0.100000)"
fill="#000000" stroke="none">
<path d="M2844 6336 c8 -20 31 -63 50 -96 45 -77 50 -97 36 -151 -12 -44 -340
-853 -492 -1214 -84 -199 -156 -387 -140 -370 4 6 75 163 157 350 81 187 163
373 182 413 18 41 33 75 33 77 0 2 13 32 29 67 16 35 85 194 155 353 70 160
130 296 135 304 7 11 25 5 92 -29 46 -23 89 -46 94 -50 50 -37 324 -172 438
-214 82 -31 273 -83 367 -100 14 -2 59 -12 100 -21 41 -9 86 -19 100 -21 196
-38 430 -114 590 -190 113 -54 272 -155 339 -214 169 -151 279 -279 371 -432
36 -62 48 -67 130 -68 l55 -1 -44 -15 c-100 -35 -134 -73 -171 -189 -13 -41
-63 -114 -102 -151 -37 -34 -157 -109 -228 -142 -75 -34 -219 -80 -302 -96
-118 -22 -369 -90 -443 -121 -16 -7 -50 -20 -75 -31 -25 -10 -52 -23 -60 -29
-8 -7 -23 -15 -33 -18 -46 -17 -208 -139 -291 -220 -100 -97 -108 -102 -187
-112 -30 -3 -61 -8 -69 -10 -8 -2 -31 -7 -50 -10 -19 -3 -42 -8 -50 -10 -8 -2
-30 -7 -47 -10 -58 -10 -256 -73 -341 -109 -92 -39 -166 -83 -202 -121 l-23
-25 39 -16 c39 -16 136 -75 131 -80 -1 -1 -29 4 -62 12 -176 41 -378 37 -522
-12 -72 -25 -188 -81 -203 -98 -7 -9 -17 -16 -23 -16 -27 0 -200 -159 -276
-255 -177 -221 -184 -416 -28 -787 25 -60 42 -108 38 -108 -13 0 -94 61 -119
89 -34 38 -60 92 -93 192 -67 203 -117 306 -184 375 -67 69 -119 70 -302 9
-74 -25 -137 -44 -139 -42 -5 5 72 57 83 57 5 0 19 9 32 19 l23 18 -41 11
c-60 15 -132 8 -182 -16 -24 -12 -75 -53 -114 -92 -96 -97 -134 -122 -255
-165 -58 -20 -140 -56 -183 -78 -216 -114 -462 -355 -543 -532 -21 -46 -25
-66 -21 -108 8 -73 21 -109 56 -160 51 -75 88 -90 221 -87 200 4 384 21 485
46 92 23 188 61 318 125 172 85 213 118 252 203 27 56 34 65 39 49 11 -35 81
-135 127 -183 83 -86 238 -181 409 -250 30 -12 69 -29 87 -36 17 -8 83 -34
146 -58 401 -155 571 -292 617 -496 18 -80 18 -80 32 -75 13 4 82 10 273 23
61 4 247 7 415 7 270 0 350 -3 530 -20 25 -2 72 -7 105 -9 33 -3 94 -10 135
-16 42 -6 94 -13 115 -15 22 -3 51 -7 65 -10 14 -3 44 -7 67 -10 23 -2 81 -11
128 -20 124 -21 125 -21 75 26 -278 255 -531 397 -885 494 -131 36 -179 55
-167 67 18 18 146 17 230 -1 55 -12 82 -14 82 -7 -1 48 -113 223 -274 426 -63
79 -113 146 -111 149 7 7 48 -24 98 -74 26 -26 50 -46 52 -43 8 8 -13 139 -37
233 -25 100 -72 224 -110 288 -15 26 -28 52 -28 57 0 6 -4 10 -8 10 -4 0 -15
13 -25 29 -26 45 -112 126 -159 151 -51 27 -123 47 -160 46 -16 -1 -28 1 -28
5 0 4 66 40 148 80 122 60 261 133 367 193 69 39 138 91 176 132 123 132 110
126 358 190 296 76 459 175 722 436 74 73 170 165 213 203 114 101 183 162
251 226 78 73 92 79 178 84 73 4 176 14 212 21 67 13 86 18 147 40 146 55 222
160 219 303 -2 103 -28 162 -113 254 l-44 49 -139 -41 c-76 -22 -140 -39 -142
-37 -7 7 59 66 101 91 39 23 350 157 399 172 10 3 18 0 19 -8 5 -53 19 -97 32
-108 10 -9 22 0 52 36 22 26 46 55 54 63 8 9 40 45 72 80 31 36 70 81 87 100
17 19 31 38 31 41 0 5 -118 4 -345 -5 -55 -3 -104 -5 -108 -5 -5 -1 5 -18 22
-38 37 -45 39 -59 9 -69 -13 -4 -57 -22 -98 -41 -41 -19 -86 -39 -100 -45 -69
-29 -95 -46 -126 -82 -19 -22 -34 -35 -34 -29 0 13 -64 107 -115 168 -62 73
-180 187 -275 264 -25 20 -47 39 -50 42 -14 16 -217 154 -298 203 -258 156
-460 237 -699 280 -122 23 -139 25 -418 41 -181 11 -285 31 -420 82 -101 38
-263 124 -374 198 -87 59 -124 90 -246 204 -60 56 -69 59 -51 17z"/>
<path d="M5953 4122 c-61 -26 -114 -50 -118 -53 -3 -3 4 -28 15 -54 45 -104
102 -291 116 -380 3 -22 7 -42 9 -46 9 -13 19 -164 19 -274 1 -149 -8 -228
-38 -358 -48 -201 -105 -343 -281 -691 -214 -425 -239 -498 -305 -879 -16 -97
-31 -189 -32 -202 -1 -14 -3 -25 -3 -25 -3 0 -652 218 -695 233 -24 9 -46 14
-49 11 -21 -21 288 -158 554 -245 82 -28 159 -56 171 -64 12 -8 40 -57 63
-112 51 -120 61 -138 60 -103 -1 38 11 395 16 476 10 152 53 311 126 462 38
78 94 166 291 452 108 158 126 188 197 335 117 240 163 449 161 724 -1 69 -3
140 -4 156 -18 181 -52 356 -103 530 -20 66 -38 128 -40 138 -3 9 -8 17 -12
16 -3 0 -56 -22 -118 -47z"/>
<path d="M1745 3779 c-120 -23 -243 -94 -350 -203 -192 -194 -236 -432 -113
-613 18 -26 121 -114 285 -242 237 -184 259 -199 265 -178 59 204 101 309 164
408 57 90 130 150 254 211 58 28 120 62 137 75 l33 24 -20 40 c-12 22 -32 44
-45 49 -15 6 -47 43 -79 92 -62 96 -75 111 -136 158 -71 55 -109 91 -115 110
-3 9 -31 29 -62 45 -61 30 -143 39 -218 24z"/>
<path d="M3037 703 c-1 0 -69 -4 -152 -7 -145 -7 -186 -10 -270 -20 -22 -3
-61 -8 -88 -11 -26 -3 -87 -17 -135 -31 -83 -24 -106 -33 -86 -35 5 0 20 -2
34 -4 14 -1 54 -6 90 -9 55 -6 185 -30 268 -50 86 -20 209 -74 297 -131 73
-46 130 -63 205 -59 36 1 76 4 90 7 28 5 82 15 120 21 14 2 41 7 60 10 145 28
629 41 790 22 53 -7 202 -25 247 -31 11 -2 29 -6 40 -9 10 -3 32 -8 48 -11 52
-9 67 -12 321 -73 137 -33 263 -63 279 -66 17 -2 54 -9 84 -15 30 -6 56 -9 58
-7 13 13 -207 134 -342 188 -224 90 -565 195 -724 223 -19 3 -37 7 -40 9 -3 2
-24 7 -46 10 -22 4 -47 8 -55 11 -23 7 -70 15 -120 21 -25 3 -54 7 -65 8 -11
2 -56 7 -100 11 -44 4 -96 9 -115 11 -93 8 -687 24 -693 17z"/>
</g>
</svg>
