<?xml version="1.0" encoding="UTF-8"?>
<svg width="700pt" height="700pt" version="1.1" viewBox="100 50 500 500" xmlns="http://www.w3.org/2000/svg" xmlns:xlink="http://www.w3.org/1999/xlink">
 <g>
  <path d="m267.62 206.81c0 45.414 36.961 82.375 82.375 82.375s82.375-36.961 82.375-82.375c0-45.418-36.961-82.32-82.375-82.32s-82.375 36.902-82.375 82.32zm137.31 0c0 30.297-24.641 54.938-54.938 54.938s-54.938-24.641-54.938-54.938 24.641-54.938 54.938-54.938 54.938 24.695 54.938 54.938z"/>
  <path d="m223.72 435.51c7.5586 0 13.719-6.1602 13.719-13.719 0-45.977 37.406-83.328 83.328-83.328h58.406c45.977 0 83.328 37.406 83.328 83.328 0 7.5586 6.1602 13.719 13.719 13.719s13.719-6.1602 13.719-13.719c0-61.098-49.672-110.77-110.77-110.77h-58.398c-61.098 0-110.77 49.672-110.77 110.77 0 7.6133 6.1602 13.719 13.719 13.719z"/>
 </g>
</svg>
